<svg width="20" height="19" fill="none" xmlns="http://www.w3.org/2000/svg">
  <path d="M17.25 0H2.75A2.753 2.753 0 0 0 0 2.75v8.874a2.753 2.753 0 0 0 2.74 2.75V18.4l5.787-4.027h8.723a2.753 2.753 0 0 0 2.75-2.75V2.75A2.753 2.753 0 0 0 17.25 0Zm1.578 11.624A1.58 1.58 0 0 1 17.25 13.2H8.16l-4.248 2.956v-2.956H2.75a1.58 1.58 0 0 1-1.578-1.577V2.75c0-.87.708-1.578 1.578-1.578h14.5c.87 0 1.578.708 1.578 1.578v8.874Z" fill="#ABABAB"/>
  <path d="M5.353 4.14h9.294v1.173H5.353V4.14ZM5.353 6.64h9.294v1.173H5.353V6.64ZM5.353 9.14h9.294v1.173H5.353V9.14Z" fill="#ABABAB"/>
</svg>
